PathFileType  4	(X/Y/Z) C:\Users\wagnerel85475\Documents\Thesis\opencap-core\Data\3375ffbc-daeb-4a43-b4f7-ac9899cd4c71\MarkerData\PreAugmentation
DataRate	CameraRate	NumFrames	NumMarkers	Units	OrigDataRate	OrigDataStartFrame	OrigNumFrames
60.0	60.0	18	20	m	60.0	1	301
Frame#	Time	Neck			RShoulder			RElbow			RWrist			LShoulder			LElbow			LWrist			midHip			RHip			RKnee			RAnkle			LHip			LKnee			LAnkle			LBigToe			LSmallToe			LHeel			RBigToe			RSmallToe			RHeel			
		X1	Y1	Z1	X2	Y2	Z2	X3	Y3	Z3	X4	Y4	Z4	X5	Y5	Z5	X6	Y6	Z6	X7	Y7	Z7	X8	Y8	Z8	X9	Y9	Z9	X10	Y10	Z10	X11	Y11	Z11	X12	Y12	Z12	X13	Y13	Z13	X14	Y14	Z14	X15	Y15	Z15	X16	Y16	Z16	X17	Y17	Z17	X18	Y18	Z18	X19	Y19	Z19	X20	Y20	Z20	

1	0.0000000	0.2446200	0.8537200	-0.1387900	0.2866200	0.8219100	0.0374200	0.2123700	0.4879500	0.1046900	0.3305200	0.2495600	0.1492900	0.2283200	0.8996800	-0.2945400	0.3419400	1.1773600	-0.4437400	0.3952300	1.4669100	-0.4270900	0.2584100	0.3188800	-0.1449300	0.2688600	0.3120900	-0.0136100	0.8158000	0.3342300	0.0019300	0.6968200	-0.1885300	0.0066800	0.2681400	0.3303700	-0.2730600	0.7753800	0.3224900	-0.3300000	0.6718800	-0.1985100	-0.3277700	0.9026600	-0.2246400	-0.3532300	0.8396600	-0.2328000	-0.4038900	0.5946100	-0.2433900	-0.3270700	0.8980900	-0.2227600	0.0341700	0.8432100	-0.2188200	0.0727500	0.6282500	-0.2307400	-0.0163200
2	0.0166667	0.2447400	0.8536700	-0.1390100	0.2870900	0.8219700	0.0371300	0.2117700	0.4878500	0.1050200	0.3298700	0.2501200	0.1488700	0.2287900	0.8993300	-0.2945500	0.3408700	1.1817000	-0.4437800	0.3951000	1.4702200	-0.4265800	0.2579600	0.3153200	-0.1447500	0.2690800	0.3115900	-0.0136700	0.8066800	0.3320000	-0.0014300	0.6967500	-0.1885000	0.0066400	0.2680000	0.3302500	-0.2731400	0.7753700	0.3224400	-0.3300100	0.6719100	-0.1987000	-0.3278000	0.9028700	-0.2246000	-0.3533400	0.8470600	-0.2267800	-0.3996000	0.5941200	-0.2436200	-0.3269600	0.8981500	-0.2227700	0.0341900	0.8433100	-0.2188000	0.0727600	0.6284500	-0.2346900	-0.0168900
3	0.0333333	0.2444800	0.8536800	-0.1387400	0.2866400	0.8219500	0.0373800	0.2123500	0.4879500	0.1046800	0.3303200	0.2499400	0.1491000	0.2280700	0.8995700	-0.2944800	0.3413400	1.1815000	-0.4436800	0.3947200	1.4749400	-0.4270400	0.2584100	0.3188600	-0.1449000	0.2688100	0.3120300	-0.0135600	0.8069200	0.3321700	-0.0013400	0.6968500	-0.1885500	0.0066800	0.2681400	0.3303800	-0.2730500	0.7669900	0.3206100	-0.3339000	0.6709100	-0.1952400	-0.3271300	0.9026600	-0.2246300	-0.3532200	0.8395700	-0.2261700	-0.4039200	0.5945300	-0.2434700	-0.3270900	0.8980800	-0.2227600	0.0341800	0.8431900	-0.2188700	0.0727600	0.6285900	-0.2347800	-0.0169200
4	0.0500000	0.2446300	0.8537500	-0.1389600	0.2870100	0.8219800	0.0371500	0.2116900	0.4878100	0.1051000	0.3368900	0.2477800	0.1493600	0.2287600	0.9032300	-0.2946400	0.3403000	1.1817500	-0.4353700	0.3946000	1.4745400	-0.4266100	0.2581800	0.3187900	-0.1451500	0.2689200	0.3116200	-0.0136100	0.8066600	0.3319900	-0.0014500	0.6967600	-0.1885200	0.0066300	0.2678600	0.3302500	-0.2731000	0.7669400	0.3205200	-0.3339300	0.6710200	-0.1953800	-0.3271300	0.9028500	-0.2246200	-0.3533500	0.8393800	-0.2262400	-0.4041100	0.5941400	-0.2436500	-0.3269500	0.8981400	-0.2227900	0.0342000	0.8432900	-0.2188400	0.0727700	0.6284600	-0.2347000	-0.0168900
5	0.0666667	0.2443700	0.8537300	-0.1387100	0.2865100	0.8219700	0.0374500	0.2123200	0.4879200	0.1047100	0.3376100	0.2473700	0.1497500	0.2173100	0.9026800	-0.2988500	0.3408300	1.1814900	-0.4352700	0.3945100	1.4753500	-0.4268900	0.2580700	0.3154000	-0.1444700	0.2679200	0.3084200	-0.0131100	0.8069800	0.3321600	-0.0013400	0.6968300	-0.1885700	0.0066900	0.2681900	0.3303700	-0.2730400	0.7755100	0.3225600	-0.3299900	0.6709300	-0.1952200	-0.3271300	0.9026800	-0.2246000	-0.3532300	0.8557800	-0.2235400	-0.4028900	0.5945900	-0.2435300	-0.3270900	0.8980700	-0.2227700	0.0341800	0.8431800	-0.2188800	0.0727600	0.6285900	-0.2348000	-0.0169100
6	0.0833333	0.2445400	0.8538800	-0.1390000	0.2868100	0.8219300	0.0371600	0.2117500	0.4878400	0.1050800	0.3346100	0.2512800	0.1466700	0.2178100	0.9024900	-0.2989300	0.3297800	1.1815600	-0.4399200	0.3946800	1.4747100	-0.4265200	0.2593200	0.3225100	-0.1457200	0.2708600	0.3153600	-0.0142200	0.8065400	0.3281400	-0.0019300	0.6963800	-0.1879400	0.0078700	0.2679800	0.3303700	-0.2731800	0.7667800	0.3239700	-0.3335800	0.6710600	-0.1953100	-0.3271300	0.8947300	-0.2277300	-0.3498800	0.8388800	-0.2296500	-0.4033500	0.5935500	-0.2402900	-0.3263300	0.8984800	-0.2228700	0.0342500	0.8435800	-0.2189000	0.0728300	0.6279900	-0.2306700	-0.0163500
7	0.1000000	0.2444300	0.8538800	-0.1387600	0.2863700	0.8219300	0.0374200	0.2122800	0.4879600	0.1047500	0.3372200	0.2475800	0.1495600	0.2172900	0.9028100	-0.2989300	0.3304600	1.1812900	-0.4399000	0.3946000	1.4753000	-0.4268800	0.2595400	0.3226900	-0.1453900	0.2707500	0.3159100	-0.0140900	0.8068800	0.3283600	-0.0018000	0.6964900	-0.1879800	0.0079400	0.2682700	0.3305300	-0.2730500	0.7754800	0.3226500	-0.3300300	0.6709900	-0.1951500	-0.3271100	0.8944900	-0.2277300	-0.3497400	0.8392600	-0.2260000	-0.4038200	0.5939400	-0.2400900	-0.3264500	0.8983900	-0.2228700	0.0342200	0.8434700	-0.2189200	0.0728100	0.6281600	-0.2307800	-0.0163700
8	0.1166667	0.2445800	0.8539300	-0.1390000	0.2766000	0.8208400	0.0419700	0.2118100	0.4878200	0.1050700	0.3371300	0.2471000	0.1494600	0.2178600	0.9025500	-0.2989200	0.3300900	1.1851100	-0.4400300	0.3945400	1.4746500	-0.4264500	0.2592900	0.3226000	-0.1457100	0.2708700	0.3154900	-0.0142000	0.8065400	0.3281700	-0.0019200	0.6963900	-0.1879400	0.0078800	0.2679700	0.3304100	-0.2731800	0.7754300	0.3225200	-0.3300400	0.6710600	-0.1952200	-0.3271100	0.8947000	-0.2277200	-0.3498500	0.8469800	-0.2231200	-0.4002000	0.5935500	-0.2402800	-0.3263100	0.8984700	-0.2228900	0.0342400	0.8435800	-0.2188800	0.0728300	0.6280200	-0.2306600	-0.0163400
9	0.1333333	0.2443700	0.8538700	-0.1387300	0.2760800	0.8208400	0.0422100	0.2123400	0.4879500	0.1047100	0.3374500	0.2472100	0.1496900	0.2172600	0.9027900	-0.2989000	0.3308500	1.1848500	-0.4399400	0.3944300	1.4754100	-0.4268300	0.2595400	0.3227000	-0.1453800	0.2707000	0.3159300	-0.0140800	0.8069000	0.3283400	-0.0017800	0.6965000	-0.1879800	0.0079500	0.2682600	0.3305300	-0.2730400	0.7752800	0.3260100	-0.3296600	0.6709900	-0.1951300	-0.3271100	0.8944800	-0.2277100	-0.3497300	0.8392800	-0.2260000	-0.4038300	0.5940200	-0.2401600	-0.3264500	0.8983800	-0.2228800	0.0342200	0.8434400	-0.2189400	0.0728200	0.6281800	-0.2307700	-0.0163800
10	0.1500000	0.2445600	0.8538900	-0.1389900	0.2868600	0.8219400	0.0371700	0.2119400	0.4878500	0.1051000	0.3373600	0.2468600	0.1495200	0.2181000	0.9064600	-0.2990700	0.3300300	1.1851500	-0.4400100	0.3946000	1.4745800	-0.4264500	0.2593100	0.3225100	-0.1457600	0.2709200	0.3153900	-0.0142500	0.8065200	0.3281700	-0.0019300	0.6964200	-0.1879200	0.0078900	0.2784900	0.3325700	-0.2773000	0.7669700	0.3205600	-0.3339500	0.6710400	-0.1952600	-0.3271200	0.8946900	-0.2277200	-0.3498600	0.8389200	-0.2259400	-0.4040200	0.5935400	-0.2402400	-0.3263200	0.8982400	-0.2229600	0.0341700	0.8434900	-0.2189500	0.0728100	0.6281200	-0.2306000	-0.0163200
11	0.1666667	0.2444400	0.8538700	-0.1387500	0.2863500	0.8219600	0.0374000	0.2124600	0.4880000	0.1047100	0.3376200	0.2470100	0.1497500	0.2172300	0.9027800	-0.2989000	0.3306600	1.1848200	-0.4399400	0.3945000	1.4752700	-0.4268700	0.2595900	0.3227300	-0.1454200	0.2706600	0.3159600	-0.0141100	0.8068700	0.3283100	-0.0018200	0.6966800	-0.1917100	0.0073500	0.2788300	0.3327700	-0.2771600	0.7670700	0.3206900	-0.3339400	0.6706100	-0.1949200	-0.3271600	0.8944900	-0.2277000	-0.3497800	0.8393700	-0.2259300	-0.4039000	0.5937600	-0.2403700	-0.3265600	0.8981500	-0.2229000	0.0341200	0.8434100	-0.2189800	0.0727600	0.6282800	-0.2307500	-0.0163200
12	0.1833333	0.2445700	0.8539300	-0.1390000	0.2765900	0.8208600	0.0419800	0.2120000	0.4878700	0.1050600	0.3374300	0.2468800	0.1495000	0.2181400	0.9064600	-0.2990400	0.3296900	1.1815700	-0.4400100	0.3948400	1.4744000	-0.4265300	0.2584600	0.3189100	-0.1452900	0.2708800	0.3153800	-0.0142800	0.8063900	0.3281200	-0.0019800	0.6965700	-0.1916700	0.0072800	0.2681600	0.3305100	-0.2813500	0.7668600	0.3205100	-0.3340000	0.6700400	-0.1916300	-0.3264800	0.8947200	-0.2276800	-0.3498800	0.8390600	-0.2259600	-0.4040600	0.5934000	-0.2404600	-0.3263800	0.8982600	-0.2229000	0.0341500	0.8435400	-0.2189000	0.0727800	0.6281200	-0.2306300	-0.0162900
13	0.2000000	0.2444500	0.8539300	-0.1387200	0.2761200	0.8209700	0.0422300	0.2122900	0.4879400	0.1046500	0.3375900	0.2471700	0.1497100	0.2175100	0.9067200	-0.2991200	0.3306700	1.1811800	-0.4398800	0.3948300	1.4749800	-0.4269200	0.2596500	0.3226300	-0.1453600	0.2706900	0.3158000	-0.0140800	0.8069500	0.3283500	-0.0017700	0.6964300	-0.1879300	0.0079500	0.2684500	0.3305200	-0.2730000	0.7668800	0.3206600	-0.3340300	0.6699600	-0.1914300	-0.3264500	0.8866900	-0.2305800	-0.3534800	0.8391700	-0.2259700	-0.4039700	0.5938500	-0.2399200	-0.3264200	0.8982300	-0.2230500	0.0341000	0.8434700	-0.2191000	0.0727500	0.6280600	-0.2307000	-0.0163700
14	0.2166667	0.2445500	0.8539600	-0.1389300	0.2766500	0.8209800	0.0420600	0.2118800	0.4878200	0.1050000	0.3375300	0.2468100	0.1495200	0.2177700	0.9024700	-0.2988600	0.3298700	1.1815200	-0.4399800	0.3950800	1.4742200	-0.4265100	0.2593200	0.3224400	-0.1457300	0.2709700	0.3153200	-0.0142700	0.8065300	0.3281300	-0.0019200	0.6962600	-0.1879300	0.0078600	0.2680700	0.3303300	-0.2731500	0.7666300	0.3204300	-0.3341100	0.6701900	-0.1915900	-0.3265000	0.8950200	-0.2274900	-0.3570100	0.8385200	-0.2229600	-0.4035000	0.6030300	-0.2366700	-0.3301500	0.8983900	-0.2230300	0.0341800	0.8436100	-0.2190600	0.0728000	0.6279200	-0.2306300	-0.0163500
15	0.2333333	0.2444400	0.8539100	-0.1386700	0.2760900	0.8210200	0.0422800	0.2122800	0.4879400	0.1046900	0.3376900	0.2470600	0.1497700	0.2172400	0.9027600	-0.2989100	0.3308000	1.1847500	-0.4399600	0.3949900	1.4749300	-0.4270300	0.2596100	0.3226700	-0.1453000	0.2706100	0.3158500	-0.0140500	0.8068400	0.3283100	-0.0017400	0.6963900	-0.1879500	0.0079500	0.2684400	0.3305100	-0.2729200	0.7667400	0.3206800	-0.3340700	0.6701200	-0.1915000	-0.3265200	0.8947700	-0.2274900	-0.3569000	0.8387400	-0.2264100	-0.4026500	0.6034400	-0.2365800	-0.3303000	0.8983300	-0.2230400	0.0341500	0.8435200	-0.2191200	0.0727900	0.6281000	-0.2307400	-0.0163800
16	0.2500000	0.2445500	0.8539800	-0.1389200	0.2880700	0.8220800	0.0455500	0.2118700	0.4879200	0.1050000	0.3371600	0.2474900	0.1493600	0.2176900	0.9024500	-0.2988500	0.3299700	1.1850700	-0.4400700	0.3955300	1.4702700	-0.4264700	0.2592100	0.3224500	-0.1457100	0.2708900	0.3153300	-0.0142800	0.8064200	0.3281300	-0.0019200	0.6962500	-0.1846900	0.0072500	0.2680000	0.3303300	-0.2731200	0.7665600	0.3204700	-0.3341200	0.6696100	-0.1880900	-0.3258700	0.8949900	-0.2274900	-0.3570300	0.8383700	-0.2264900	-0.4028500	0.6030600	-0.2366000	-0.3301300	0.8984100	-0.2230400	0.0341800	0.8436200	-0.2189900	0.0728100	0.6279200	-0.2306100	-0.0163600
17	0.2666667	0.2444200	0.8539200	-0.1386300	0.2874700	0.8221500	0.0457900	0.2121200	0.4880800	0.1047100	0.3303800	0.2499200	0.1490600	0.2172100	0.9027700	-0.2988800	0.3305300	1.1810900	-0.4400100	0.3952100	1.4708900	-0.4269400	0.2596000	0.3226900	-0.1452800	0.2705800	0.3158700	-0.0140300	0.8069500	0.3283300	-0.0017100	0.6964100	-0.1847500	0.0073400	0.2684300	0.3305300	-0.2729000	0.7667400	0.3207000	-0.3341000	0.6694700	-0.1879200	-0.3258800	0.8949000	-0.2241600	-0.3563100	0.8308300	-0.2258000	-0.4072200	0.6034200	-0.2364600	-0.3302800	0.8982800	-0.2230100	0.0341500	0.8434900	-0.2190700	0.0727800	0.6281400	-0.2307400	-0.0163900
18	0.2833333	0.2444800	0.8538300	-0.1388900	0.2881300	0.8220900	0.0456300	0.2116900	0.4879000	0.1051300	0.3304100	0.2494500	0.1489600	0.2176200	0.9023600	-0.2988600	0.3411400	1.1776300	-0.4438800	0.3959900	1.4661600	-0.4264100	0.2581400	0.3188500	-0.1451700	0.2706600	0.3153400	-0.0142400	0.8066000	0.3318700	-0.0015600	0.6963700	-0.1846000	0.0072400	0.2677600	0.3303000	-0.2730900	0.7582200	0.3185900	-0.3380100	0.6699100	-0.1843800	-0.3266400	0.8868300	-0.2306100	-0.3535700	0.8383900	-0.2228900	-0.4035000	0.6029100	-0.2366500	-0.3302300	0.8988700	-0.2267200	0.0334800	0.8437200	-0.2189800	0.0727700	0.6279300	-0.2305100	-0.0163300
